<svg version="1.1" id="Layer_1" xmlns="http://www.w3.org/2000/svg" x="0" y="0" width="314.8" height="170.8" xml:space="preserve"><style>.st0{fill:#fff}.st1{fill:#61dafb}.st5{fill:#ebebeb}</style><g id="Group_1252" transform="translate(-1419 -1964.26)"><path id="Path_925" class="st0" d="M1467.1 1971.2c45.3-16.8 91.3-1.9 122.5 30.4 31.2 32.4 96.7-22.3 131.5 10 23.7 22.1 12.8 78.8-19.7 103.3-44.2 33.4-178.6 16.4-207.6 10.8-33.5-6.5-58-26.4-67.9-50.5-24-58.1 21.2-96.5 41.2-104z"/><g id="react-2" transform="translate(1263.3 1910)"><path id="Path_250" class="st1" d="M224.3 99.6c0-3.2-4-6.3-10.2-8.2 1.4-6.3.8-11.3-2-12.9-.7-.4-1.4-.6-2.2-.6v2.2c.4 0 .8.1 1.1.3 1.3.8 1.9 3.7 1.5 7.5-.1.9-.3 1.9-.5 2.9-2.1-.5-4.2-.9-6.3-1.1-1.3-1.7-2.6-3.4-4.1-5 3.2-3 6.3-4.6 8.3-4.6V78c-2.7 0-6.3 1.9-9.9 5.3-3.6-3.3-7.2-5.3-9.9-5.3v2.2c2.1 0 5.1 1.6 8.3 4.6-1.5 1.6-2.8 3.2-4.1 4.9-2.1.2-4.2.6-6.3 1.1-.2-1-.4-2-.5-2.9-.5-3.8.1-6.7 1.4-7.5.3-.2.7-.3 1.1-.3V78c-.8 0-1.6.2-2.2.6-2.8 1.6-3.4 6.6-2 12.9-6.2 1.9-10.2 4.9-10.2 8.2s4 6.3 10.2 8.2c-1.4 6.3-.8 11.3 2 12.9.7.4 1.4.6 2.2.6 2.7 0 6.3-1.9 9.9-5.3 3.6 3.3 7.2 5.3 9.9 5.3.8 0 1.6-.2 2.2-.6 2.8-1.6 3.4-6.6 2-12.9 6.3-2 10.3-5.1 10.3-8.3zM211.4 93c-.4 1.3-.8 2.6-1.3 3.9-.4-.8-.8-1.6-1.3-2.4s-.9-1.6-1.4-2.3c1.3.3 2.7.5 4 .8zm-4.5 10.6c-.8 1.3-1.6 2.6-2.4 3.8-1.5.1-3 .2-4.5.2s-3-.1-4.5-.2c-.8-1.2-1.6-2.4-2.4-3.8-.8-1.3-1.4-2.6-2.1-3.9.6-1.3 1.3-2.7 2.1-4 .8-1.3 1.6-2.6 2.4-3.8 1.5-.1 3-.2 4.5-.2s3 .1 4.5.2c.8 1.2 1.6 2.4 2.4 3.8.8 1.3 1.4 2.6 2.1 3.9-.7 1.4-1.4 2.7-2.1 4zm3.2-1.3c.5 1.3 1 2.7 1.4 3.9-1.3.3-2.7.6-4.1.8.5-.8 1-1.5 1.4-2.3s.8-1.6 1.3-2.4zM200 112.9c-1-1-1.9-2.1-2.8-3.2.9 0 1.8.1 2.7.1s1.9 0 2.8-.1c-.8 1.1-1.7 2.2-2.7 3.2zm-7.4-5.9c-1.4-.2-2.8-.5-4.1-.8.4-1.3.8-2.6 1.3-3.9.4.8.8 1.6 1.3 2.4s1.1 1.6 1.5 2.3zm7.4-20.6c1 1 1.9 2.1 2.8 3.2-.9 0-1.8-.1-2.7-.1s-1.9 0-2.8.1c.8-1.1 1.7-2.2 2.7-3.2zm-7.4 5.9c-.5.8-1 1.5-1.4 2.3s-.9 1.6-1.3 2.4c-.5-1.3-1-2.7-1.4-3.9 1.4-.4 2.7-.6 4.1-.8zm-8.9 12.4c-3.5-1.5-5.8-3.5-5.8-5s2.3-3.5 5.8-5c.9-.4 1.8-.7 2.7-1 .6 2.1 1.4 4.1 2.2 6-.9 1.9-1.6 4-2.2 6-.9-.3-1.9-.7-2.7-1zm5.3 14.1c-1.3-.8-1.9-3.7-1.5-7.5.1-.9.3-1.9.5-2.9 2.1.5 4.2.9 6.3 1.1 1.3 1.7 2.6 3.4 4.1 5-3.2 3-6.3 4.6-8.3 4.6-.4 0-.8-.1-1.1-.3zm23.5-7.5c.5 3.8-.1 6.7-1.4 7.5-.3.2-.7.3-1.1.3-2.1 0-5.1-1.6-8.3-4.6 1.5-1.6 2.8-3.2 4.1-4.9 2.1-.2 4.2-.6 6.3-1.1.1.8.3 1.8.4 2.8zm3.8-6.7c-.9.4-1.8.7-2.7 1-.6-2.1-1.4-4.1-2.2-6 .9-1.9 1.6-4 2.2-6 1 .3 1.9.6 2.8 1 3.5 1.5 5.8 3.5 5.8 5s-2.4 3.6-5.9 5z"/><circle id="Ellipse_32" class="st1" cx="200" cy="99.6" r="4.5"/></g><g id="css-5" transform="translate(1453.128 2050)"><path id="Path_243" d="M27.2 1.8h-2.9l3 3.3v1.5h-6.2V4.8h3l-3-3.3V0h6.1v1.8zm-7.3 0H17l3 3.3v1.5h-6.2V4.8h3l-3-3.3V0h6.1v1.8zm-7.2.1H9.6v2.8h3.1v1.9H7.4V0h5.3v1.9z" fill="#131313"/><path id="Path_244" d="M3.2 45.1L0 9.6h34.7L31.5 45l-14.2 4-14.1-3.9z" fill="#1572b6"/><path id="Path_245" d="M17.4 46l11.5-3.2 2.7-30.3H17.4V46z" fill="#33a9dc"/><path id="Path_246" class="st0" d="M17.4 25.4h5.8l.4-4.5h-6.2v-4.3h10.9l-.1 1.2-1.1 12h-9.7v-4.4z"/><path id="Path_247" class="st5" d="M17.4 36.7l-4.9-1.3-.3-3.5H7.9l.6 6.8 8.9 2.5v-4.5z"/><path id="Path_248" class="st0" d="M22.7 29.5l-.5 5.8-4.8 1.3v4.5l8.9-2.5.1-.7.8-8.5-4.5.1z"/><path id="Path_249" class="st5" d="M17.4 16.6v4.3H6.9l-.1-1-.2-2.2-.1-1.2 10.9.1zm0 8.8v4.3h-4.8l-.1-1-.2-2.2-.1-1.2 5.2.1z"/></g><path id="Path_927" d="M1521.4 2104l4.1-2.5c.8 1.4 1.5 2.6 3.2 2.6 1.7 0 2.7-.6 2.7-3.2v-17.1h5v17.2c0 5.2-3.1 7.6-7.5 7.6-3.1.1-6.2-1.7-7.5-4.6m17.9-.6l4.1-2.4c.9 1.9 2.9 3.1 5 3.1s3.4-1 3.4-2.5c0-1.7-1.4-2.3-3.7-3.3l-1.3-.5c-3.6-1.5-6.1-3.5-6.1-7.6 0-3.8 2.9-6.7 7.4-6.7 3-.2 5.8 1.4 7.2 4l-3.9 2.5c-.9-1.5-1.8-2.2-3.2-2.2-1.2-.1-2.3.8-2.4 2v.2c0 1.5.9 2.1 3.1 3.1l1.3.5c4.3 1.8 6.7 3.7 6.7 7.9 0 4.5-3.6 7-8.4 7-4.7.1-7.8-2.2-9.2-5.1" fill="#f7df1e"/><g id="html-5" transform="translate(1587.555 2035)"><path id="Path_238" d="M33 20.4l-3 32.9L16.8 57 3.7 53.3.8 20.4H33z" fill="#e44d26"/><path id="Path_239" d="M16.9 54.1l10.7-3 2.4-28H16.9v31z" fill="#f16529"/><path id="Path_240" class="st5" d="M11.2 31.1h5.7v-4H6.7l.1 1.1 1 11.1h9v-4h-5.3l-.3-4.2zm.9 10.2H8l.6 6.3 8.3 2.3v-4.2l-4.5-1.2-.3-3.2z"/><path id="Path_241" d="M3.8 11.4h2v2h1.9v-2h2v6.1h-2v-2.1H5.8v2.1h-2v-6.1zm8.6 2.1h-1.8v-2h5.7v2h-1.8v4.1h-2.1v-4.1zm4.8-2.1h2.1l1.3 2.2 1.3-2.2H24v6.1h-2v-3l-1.4 2.2-1.4-2.2v3h-2v-6.1zm7.9 0h2v4.1H30v2h-4.9v-6.1z"/><path id="Path_242" class="st0" d="M16.8 39.3h5l-.5 5.2-4.5 1.2v4.2l8.3-2.3.1-.7.9-10.6.1-1.1h-9.4v4.1zm0-8.2h9.7l.1-.9.2-2 .1-1.1h-10l-.1 4z"/></g><g id="github-logo" transform="translate(1649 2074.635)"><path id="Path_854" d="M34.5 14.6c-1.6-2.8-3.9-5.1-6.7-6.7-2.8-1.6-6-2.5-9.3-2.5-3.3 0-6.5.8-9.3 2.5-2.8 1.6-5.1 3.9-6.7 6.7-1.6 2.8-2.5 6-2.5 9.3 0 3.9 1.2 7.7 3.5 10.9 2.2 3.1 5.4 5.5 9.1 6.7.3.1.7 0 1-.2.2-.2.3-.4.3-.7v-1.3-2.1l-.6.1c-.4.1-.9.1-1.3.1-.6 0-1.1-.1-1.7-.2-.6-.1-1.1-.4-1.6-.7-.5-.4-.9-.9-1.1-1.5l-.2-.6c-.2-.4-.5-.9-.8-1.2-.3-.4-.6-.7-1-.9l-.2-.1-.3-.3c-.1-.2-.1-.3-.2-.4 0-.1 0-.2.1-.3.2-.1.5-.1.7-.1l.5.1c.4.1.8.3 1.2.6.5.2.9.7 1.2 1.2.3.6.8 1.1 1.3 1.5.5.3 1 .5 1.6.5.5 0 .9 0 1.4-.1.4-.1.7-.2 1.1-.4.1-.9.5-1.8 1.2-2.5-.8-.1-1.7-.2-2.5-.4s-1.6-.5-2.3-.9c-.7-.4-1.4-1-1.9-1.6-.6-.8-1-1.6-1.3-2.5-.3-1.2-.5-2.4-.5-3.6 0-1.8.6-3.6 1.9-5-.6-1.7-.5-3.4.2-5 .7-.1 1.4 0 2.1.3.7.3 1.4.6 2 .9.4.3.8.5 1 .6 3-.8 6.2-.8 9.3 0l.9-.6c.7-.4 1.4-.8 2.2-1.1.6-.3 1.3-.4 2-.3.7 1.5.8 3.3.2 4.9 1.3 1.3 1.9 3.1 1.9 5 0 1.2-.1 2.4-.5 3.6-.3.9-.7 1.8-1.3 2.5-.5.7-1.2 1.2-2 1.6-.7.4-1.5.7-2.3.9-.8.2-1.6.4-2.5.4.9.9 1.4 2.2 1.3 3.4v5.1c0 .3.1.5.3.7.3.2.6.3 1 .2 3.7-1.2 6.9-3.5 9.1-6.7 2.3-3.1 3.6-7 3.5-10.9 0-2.9-.8-6.1-2.5-8.9z"/></g><path d="M1545.3 2040.9l-12.7-2.7c-.1.1-.1.2-.2.3l11.6 16.9.7-.7 2-12.2c-.8-.3-1.3-.9-1.4-1.6zm-4.7-16.6c-.5.7-1.3 1.2-2.2 1.2h-.4l-5.8 9.1 15.5-6.7v-.2-.4l-7.1-3zm.5-1.6l7.5 3.2c.2-.2.5-.3.8-.4l1.2-7.7-4.7-4.7-5.3 8.3c.3.4.4.8.5 1.3zm15.7 1.3l-4.7-4.7-1 6.4c.3.1.5.3.7.5l5-2.2zm-11.3 15.2c.4-.7 1.1-1.1 1.8-1.2l1.4-8.4c-.1-.1-.2-.2-.3-.2l-15.6 6.7c0 .2.1.3.1.5l12.6 2.6zm12.5-13.9l-5.4 2.3 13.4 5.7-8-8zm-9.7 17.2l-1.6 10.2 9.5-9.5-6.8-1.4c-.3.3-.7.6-1.1.7zm-18.4-2.6c-.3 0-.7-.1-1-.2l-3.2 4.9-1.2-1.2 3-4.7c-.1-.1-.1-.2-.2-.3l-5.4 2.3-1.3-1.3 5.9-2.6-10.7-2.2-1.5-1.5.5-.5 12.4 2.6c.1-.3.3-.5.5-.7l-6-8.7 1.2-1.2 6.3 9.1c.2-.1.5-.1.7-.1.3 0 .5 0 .8.1l5.9-9.2c-.5-.5-.7-1.2-.7-1.8 0-.2 0-.4.1-.6l-7.3-3.1 1.3-1.3 6.9 3c.7-.6 1.7-.8 2.6-.5l5.4-8.5-4.5-4.5-25.9 25.9 25.9 25.9 2.5-2.5-11.6-17c-.6.3-1 .4-1.4.4zm20.4-9.9l-1.4 8.5c.5.4.8 1 .8 1.6l7.8 1.6 7.1-7.1-12.9-5.5c-.2.5-.8.8-1.4.9z" fill="#25c7b7"/><path d="M1653.3 2051.9c0 3.1 2.5 5.6 5.6 5.6h32.1c3.1 0 5.6-2.5 5.6-5.6v-32.1c0-3.1-2.5-5.6-5.6-5.6h-32.1c-3.1 0-5.6 2.5-5.6 5.6v32.1z" fill="#563d7c"/><path class="st0" d="M1671.3 2033.3v-6.1h5.4c.5 0 1 0 1.5.1s.9.2 1.3.5.7.5.9.9c.2.4.3.9.3 1.5 0 1.1-.3 1.9-1 2.4s-1.5.7-2.5.7h-5.9zm-5.8-10.6v26.2h12.7c1.2 0 2.3-.1 3.4-.4 1.1-.3 2.1-.7 3-1.4.9-.6 1.6-1.4 2.1-2.4s.8-2.1.8-3.4c0-1.6-.4-3-1.2-4.2-.8-1.2-2-2-3.6-2.4 1.2-.6 2.1-1.3 2.7-2.2.6-.9.9-2 .9-3.3 0-1.2-.2-2.3-.6-3.1-.4-.8-1-1.5-1.7-2s-1.6-.9-2.6-1.1c-1-.2-2.2-.3-3.4-.3h-12.5zm5.8 21.7v-7.2h6.3c1.2 0 2.3.3 3 .9.8.6 1.1 1.5 1.1 2.9 0 .7-.1 1.2-.3 1.7-.2.4-.5.8-.9 1-.4.3-.8.4-1.4.6-.5.1-1.1.2-1.6.2h-6.2v-.1z"/></g></svg>